<?xml version="1.0" encoding="UTF-8"?>
<svg id="Calque_2" data-name="Calque 2" xmlns="http://www.w3.org/2000/svg" viewBox="0 0 784.7 612.18">
  <defs>
    <style>
      .cls-1 {
        fill: #1974cc;
      }
    </style>
  </defs>
  <g id="Calque_1-2" data-name="Calque 1">
    <g>
      <path class="cls-1" d="M304.67,95.43l84.98-73.37c10.5-7.08,25-6.74,35.4.44,43.1,41.49,93.98,78.61,136.38,120.37,2.65,2.61,6.27,5.71,8.17,8.81,9.08,14.86-.22,36.25-17.76,38.57-13.66,1.81-21.5-3.39-31.4-11.39-35.72-28.87-69.07-62.86-104.39-92.42-9.05-6.13-13.43-2.59-20.95,3.02-23.24,17.33-54.19,45.19-75.47,65.39-6.23,5.92-13.96,12.95-14.97,21.99,2.81,43.6-3.73,91.86-.03,134.91.63,7.32,2.89,12.18,10,14.98l227.35.43c25.77,1.85,26.28,23.64,24.47,44.53-1.19,13.71-12.21,21.9-25.47,22.49H252.19c-17.35-1.37-28.1-12.12-29.47-29.48l.16-341.58c1.61-13.74,10.72-21.57,24.32-22.64,8.92-.7,35.77-1.07,43.02,2.01,6.1,2.59,14.46,11.68,14.46,18.5v74.43Z"/>
      <path d="M578.41,579.96c-.59.92-20.51,3.39-19.76-2.72l-.02-78.5c1.1-3.73,13.11-3.37,16.08-2.5,4.24,1.24,1.9,6.83,3.19,9.78,11.51-15.78,41.44-15.67,48.47,4,8.68-11.18,17.66-16.6,32.35-14.88,38.32,4.49,23.78,56.59,26.55,82.28-1.15,6.02-15.14,3.38-19.95,2.53v-51.45c0-.34-1.46-5.45-1.78-6.22-6.38-15.7-29.36-10.18-31.19,6.21-1.71,15.23,1.3,33.37-.03,48.93-.07,5.9-19.56,3.73-19.99,1.86l-.96-52.79c-1.67-15.74-21.4-18.03-29.43-5.45-.61.95-3.54,7.99-3.54,8.45v50.45Z"/>
      <path d="M484.48,509.02c12.16-21.77,47.75-17.77,55.02,6.44,2.89,9.62,3.4,50.42,1.99,61.04-.34,2.53-.83,3.9-3.57,4.42s-14.61.8-15.96-1.97c-2.52-16.55,1.88-36.9-.94-53-3.1-17.67-27.83-16.42-31.08-1-3,14.23,1.29,35.45-.43,50.52-.86,7.53-9.08,6.16-15.52,5.48-5.02-.53-5.12-1.72-5.52-6.45-1.23-14.59,2.51-36.51-.18-49.77-3.48-17.15-29.95-15.58-31.78,5.73-1.34,15.6,1.48,32.75-.46,48.49-1.54,3.16-16.36,2.69-18.51.52-2.91-2.93-.12-72.84-.54-82.51,9.5-1.66,19.35-4.13,18.04,9.05,10.47-13.65,32.78-15.47,44.47-2.5,1.71,1.9,1.87,5.8,4.97,5.49Z"/>
      <path d="M297.68,571.96v37.46c0,3.68-19.98,3.68-19.98,0v-111.89l1.5-1.5h15.98c.28,0,2.33,1.02,2.53,1.68l-.03,7.31c16.31-19.05,46.93-9.81,57.76,10.67,20.22,38.23-19.98,89.74-57.77,56.27ZM313.41,513.26c-15.65,2.7-17.35,22.55-15.64,35.14,1.4,10.25,11.28,17.16,21.35,16.59,29.09-1.65,28.28-57.58-5.72-51.73Z"/>
      <path d="M212.52,495.3c61.58-8.37,68.98,82.31,11.61,87.53-57.5,5.23-65.06-80.27-11.61-87.53ZM214.5,513.26c-25.84,4.38-24.05,54.62,7.64,51.61,30.28-2.88,27.1-57.5-7.64-51.61Z"/>
      <path d="M735.01,495.3c61.23-8.33,67.5,84.05,9.72,87.64-55.49,3.45-62.22-80.49-9.72-87.64ZM736.99,513.26c-25.22,4.29-24.29,52.67,5.7,51.74,31.19-.97,28.52-57.55-5.7-51.74Z"/>
      <path d="M115.64,495.32c56.81-6.93,69.07,73.53,17.24,86.17-60.12,14.66-74.02-79.24-17.24-86.17ZM117.62,513.28c-26.34,3.85-24.45,53.45,5.7,51.7,31-1.79,28.77-56.74-5.7-51.7Z"/>
      <path d="M20.95,561.97h49.95v16.48c0,1.79-3.95,2.41-5.43,2.56-19.18,1.92-41.51-1.59-61.05-.01l-3.95-2.04-.47-105.37c.35-5.94,20.95-4.13,20.95-1.03v89.41Z"/>
      <path d="M377.3,470.26c3.06-.9,18.16-1.63,18.25,3.32l.08,102.93c-.07,6.8-20.11,5.94-21.04.94l.5-105.4c.51-.86,1.23-1.51,2.2-1.79Z"/>
    </g>
  </g>
</svg>
