<?xml version="1.0" encoding="UTF-8"?>
<svg id="Calque_2" data-name="Calque 2" xmlns="http://www.w3.org/2000/svg" viewBox="0 0 350.42 394.18">
  <defs>
    <style>
      .cls-1 {
        fill: #1974cc;
      }
    </style>
  </defs>
  <g id="Calque_1-2" data-name="Calque 1">
    <path class="cls-1" d="M81.96,95.43L166.93,22.06c10.5-7.08,25-6.74,35.4.44,43.1,41.49,93.98,78.61,136.38,120.37,2.65,2.61,6.27,5.71,8.17,8.81,9.08,14.86-.22,36.25-17.76,38.57-13.66,1.81-21.5-3.39-31.4-11.39-35.72-28.87-69.07-62.86-104.39-92.42-9.05-6.13-13.43-2.59-20.95,3.02-23.24,17.33-54.19,45.19-75.47,65.39-6.23,5.92-13.96,12.95-14.97,21.99,2.81,43.6-3.73,91.86-.03,134.91.63,7.32,2.89,12.18,10,14.98l227.35.43c25.77,1.85,26.28,23.64,24.47,44.53-1.19,13.71-12.21,21.9-25.47,22.49H29.47c-17.35-1.37-28.1-12.12-29.47-29.48L.16,23.12C1.77,9.38,10.88,1.56,24.48.48c8.92-.7,35.77-1.07,43.02,2.01,6.1,2.59,14.46,11.68,14.46,18.5v74.43Z"/>
  </g>
</svg>